<svg width="240" height="120" viewBox="0 0 240 120" xmlns="http://www.w3.org/2000/svg">
  <!-- Boss Niveau 1: Serpent Mécanique - Secteur Spatial -->
  
  <!-- Corps principal serpentin -->
  <ellipse cx="200" cy="60" rx="35" ry="25" fill="#4A4A4A" stroke="#666" stroke-width="2"/>
  <ellipse cx="160" cy="50" rx="30" ry="20" fill="#555" stroke="#666" stroke-width="2"/>
  <ellipse cx="120" cy="65" rx="28" ry="18" fill="#4A4A4A" stroke="#666" stroke-width="2"/>
  <ellipse cx="80" cy="45" rx="25" ry="16" fill="#555" stroke="#666" stroke-width="2"/>
  <ellipse cx="40" cy="70" rx="22" ry="14" fill="#4A4A4A" stroke="#666" stroke-width="2"/>
  
  <!-- Segments mécaniques -->
  <rect x="190" y="50" width="20" height="20" fill="#666" stroke="#888" stroke-width="1"/>
  <rect x="150" y="40" width="20" height="20" fill="#666" stroke="#888" stroke-width="1"/>
  <rect x="110" y="55" width="20" height="20" fill="#666" stroke="#888" stroke-width="1"/>
  <rect x="70" y="35" width="20" height="20" fill="#666" stroke="#888" stroke-width="1"/>
  <rect x="30" y="60" width="20" height="20" fill="#666" stroke="#888" stroke-width="1"/>
  
  <!-- Tête du serpent -->
  <polygon points="220,45 240,60 220,75 200,60" fill="#333" stroke="#FF4444" stroke-width="2"/>
  
  <!-- Yeux rouges -->
  <circle cx="225" cy="55" r="3" fill="#FF0000"/>
  <circle cx="225" cy="65" r="3" fill="#FF0000"/>
  
  <!-- Détails mécaniques -->
  <rect x="195" y="55" width="10" height="3" fill="#00FFFF"/>
  <rect x="155" y="45" width="10" height="3" fill="#00FFFF"/>
  <rect x="115" y="60" width="10" height="3" fill="#00FFFF"/>
  <rect x="75" y="40" width="10" height="3" fill="#00FFFF"/>
  <rect x="35" y="65" width="10" height="3" fill="#00FFFF"/>
  
  <!-- Canons latéraux -->
  <rect x="180" y="35" width="8" height="15" fill="#888" stroke="#AAA" stroke-width="1"/>
  <rect x="180" y="70" width="8" height="15" fill="#888" stroke="#AAA" stroke-width="1"/>
  <rect x="140" y="30" width="8" height="15" fill="#888" stroke="#AAA" stroke-width="1"/>
  <rect x="140" y="75" width="8" height="15" fill="#888" stroke="#AAA" stroke-width="1"/>
  
  <!-- Propulseurs -->
  <ellipse cx="25" cy="70" rx="8" ry="6" fill="#FF6600" opacity="0.8"/>
  <ellipse cx="20" cy="70" rx="5" ry="4" fill="#FFAA00" opacity="0.9"/>
</svg>
