<svg width="220" height="140" viewBox="0 0 220 140" xmlns="http://www.w3.org/2000/svg">
  <!-- Boss Niveau 2: Croiseur Lourd - Champ d'Astéroïdes -->
  
  <!-- Coque principale -->
  <rect x="40" y="50" width="160" height="40" fill="#666" stroke="#888" stroke-width="2"/>
  <polygon points="200,50 220,60 220,80 200,90" fill="#555" stroke="#888" stroke-width="2"/>
  
  <!-- Superstructure -->
  <rect x="60" y="40" width="120" height="20" fill="#777" stroke="#999" stroke-width="1"/>
  <rect x="80" y="30" width="80" height="15" fill="#888" stroke="#AAA" stroke-width="1"/>
  
  <!-- Pont de commandement -->
  <rect x="100" y="20" width="40" height="15" fill="#999" stroke="#BBB" stroke-width="1"/>
  <rect x="110" y="15" width="20" height="8" fill="#AAA" stroke="#CCC" stroke-width="1"/>
  
  <!-- Tourelles principales -->
  <circle cx="70" cy="45" r="12" fill="#555" stroke="#777" stroke-width="2"/>
  <rect x="65" y="35" width="10" height="20" fill="#666" stroke="#888" stroke-width="1"/>
  
  <circle cx="150" cy="45" r="12" fill="#555" stroke="#777" stroke-width="2"/>
  <rect x="145" y="35" width="10" height="20" fill="#666" stroke="#888" stroke-width="1"/>
  
  <!-- Canons secondaires -->
  <rect x="50" y="25" width="6" height="25" fill="#777" stroke="#999" stroke-width="1"/>
  <rect x="164" y="25" width="6" height="25" fill="#777" stroke="#999" stroke-width="1"/>
  
  <!-- Blindage latéral -->
  <rect x="40" y="95" width="160" height="15" fill="#555" stroke="#777" stroke-width="1"/>
  <rect x="40" y="30" width="160" height="15" fill="#555" stroke="#777" stroke-width="1"/>
  
  <!-- Détails d'astéroïdes incrustés -->
  <circle cx="90" cy="60" r="8" fill="#8B4513" stroke="#A0522D" stroke-width="1"/>
  <circle cx="130" cy="75" r="6" fill="#696969" stroke="#808080" stroke-width="1"/>
  <circle cx="160" cy="65" r="5" fill="#8B4513" stroke="#A0522D" stroke-width="1"/>
  
  <!-- Propulseurs -->
  <rect x="35" y="55" width="12" height="8" fill="#444" stroke="#666" stroke-width="1"/>
  <rect x="35" y="67" width="12" height="8" fill="#444" stroke="#666" stroke-width="1"/>
  <rect x="35" y="79" width="12" height="8" fill="#444" stroke="#666" stroke-width="1"/>
  
  <!-- Flammes des propulseurs -->
  <ellipse cx="30" cy="59" rx="8" ry="4" fill="#FF4400" opacity="0.8"/>
  <ellipse cx="30" cy="71" rx="8" ry="4" fill="#FF6600" opacity="0.8"/>
  <ellipse cx="30" cy="83" rx="8" ry="4" fill="#FF4400" opacity="0.8"/>
  
  <!-- Éclairages -->
  <circle cx="210" cy="60" r="3" fill="#00FF00"/>
  <circle cx="210" cy="80" r="3" fill="#FF0000"/>
  
  <!-- Antennes/Capteurs -->
  <line x1="120" y1="15" x2="120" y2="5" stroke="#CCC" stroke-width="2"/>
  <circle cx="120" cy="5" r="2" fill="#00FFFF"/>
</svg>
