<svg width="260" height="120" viewBox="0 0 260 120" xmlns="http://www.w3.org/2000/svg">
  <!-- Boss Niveau 4: Dreadnought - Station Ennemie -->
  
  <!-- Coque principale massive -->
  <rect x="30" y="40" width="200" height="40" fill="#2A2A2A" stroke="#4A4A4A" stroke-width="3"/>
  <polygon points="230,40 260,50 260,70 230,80" fill="#1A1A1A" stroke="#4A4A4A" stroke-width="3"/>
  
  <!-- Superstructure blindée -->
  <rect x="40" y="25" width="180" height="20" fill="#3A3A3A" stroke="#5A5A5A" stroke-width="2"/>
  <rect x="50" y="15" width="160" height="15" fill="#4A4A4A" stroke="#6A6A6A" stroke-width="2"/>
  <rect x="60" y="5" width="140" height="12" fill="#5A5A5A" stroke="#7A7A7A" stroke-width="1"/>
  
  <!-- Pont de commandement fortifié -->
  <rect x="90" y="85" width="80" height="20" fill="#3A3A3A" stroke="#5A5A5A" stroke-width="2"/>
  <rect x="100" y="95" width="60" height="15" fill="#4A4A4A" stroke="#6A6A6A" stroke-width="1"/>
  <rect x="110" y="105" width="40" height="10" fill="#5A5A5A" stroke="#7A7A7A" stroke-width="1"/>
  
  <!-- Tourelles principales massives -->
  <circle cx="80" cy="35" r="18" fill="#1A1A1A" stroke="#3A3A3A" stroke-width="3"/>
  <rect x="70" y="15" width="20" height="25" fill="#2A2A2A" stroke="#4A4A4A" stroke-width="2"/>
  <rect x="75" y="10" width="10" height="15" fill="#3A3A3A" stroke="#5A5A5A" stroke-width="1"/>
  
  <circle cx="180" cy="35" r="18" fill="#1A1A1A" stroke="#3A3A3A" stroke-width="3"/>
  <rect x="170" y="15" width="20" height="25" fill="#2A2A2A" stroke="#4A4A4A" stroke-width="2"/>
  <rect x="175" y="10" width="10" height="15" fill="#3A3A3A" stroke="#5A5A5A" stroke-width="1"/>
  
  <!-- Canons secondaires -->
  <rect x="50" y="20" width="8" height="30" fill="#4A4A4A" stroke="#6A6A6A" stroke-width="1"/>
  <rect x="202" y="20" width="8" height="30" fill="#4A4A4A" stroke="#6A6A6A" stroke-width="1"/>
  <rect x="120" y="10" width="6" height="25" fill="#4A4A4A" stroke="#6A6A6A" stroke-width="1"/>
  <rect x="134" y="10" width="6" height="25" fill="#4A4A4A" stroke="#6A6A6A" stroke-width="1"/>
  
  <!-- Systèmes de défense point -->
  <circle cx="60" cy="50" r="5" fill="#3A3A3A" stroke="#5A5A5A" stroke-width="1"/>
  <circle cx="200" cy="50" r="5" fill="#3A3A3A" stroke="#5A5A5A" stroke-width="1"/>
  <circle cx="130" cy="25" r="4" fill="#3A3A3A" stroke="#5A5A5A" stroke-width="1"/>
  
  <!-- Blindage réactif -->
  <rect x="45" y="45" width="15" height="8" fill="#5A5A5A" stroke="#7A7A7A" stroke-width="1"/>
  <rect x="70" y="52" width="12" height="6" fill="#5A5A5A" stroke="#7A7A7A" stroke-width="1"/>
  <rect x="148" y="52" width="12" height="6" fill="#5A5A5A" stroke="#7A7A7A" stroke-width="1"/>
  <rect x="180" y="45" width="15" height="8" fill="#5A5A5A" stroke="#7A7A7A" stroke-width="1"/>
  
  <!-- Propulseurs principaux -->
  <rect x="20" y="45" width="15" height="10" fill="#1A1A1A" stroke="#3A3A3A" stroke-width="2"/>
  <rect x="20" y="58" width="15" height="10" fill="#1A1A1A" stroke="#3A3A3A" stroke-width="2"/>
  <rect x="20" y="71" width="15" height="10" fill="#1A1A1A" stroke="#3A3A3A" stroke-width="2"/>
  
  <!-- Flammes des propulseurs -->
  <ellipse cx="12" cy="50" rx="12" ry="5" fill="#FF2200" opacity="0.9"/>
  <ellipse cx="12" cy="63" rx="12" ry="5" fill="#FF4400" opacity="0.9"/>
  <ellipse cx="12" cy="76" rx="12" ry="5" fill="#FF2200" opacity="0.9"/>
  
  <!-- Éclairages de combat -->
  <circle cx="250" cy="45" r="3" fill="#FF0000"/>
  <circle cx="250" cy="55" r="3" fill="#FF0000"/>
  <circle cx="250" cy="65" r="3" fill="#FF0000"/>
  <circle cx="250" cy="75" r="3" fill="#FF0000"/>
  
  <!-- Antennes radar -->
  <line x1="130" y1="5" x2="130" y2="-5" stroke="#7A7A7A" stroke-width="2"/>
  <line x1="125" y1="-5" x2="135" y2="-5" stroke="#7A7A7A" stroke-width="2"/>
  <line x1="127" y1="-3" x2="133" y2="-3" stroke="#7A7A7A" stroke-width="1"/>
  
  <!-- Marquages d'identification -->
  <rect x="110" y="60" width="40" height="8" fill="#FF4444" opacity="0.7"/>
  <rect x="115" y="62" width="30" height="4" fill="#FFFFFF" opacity="0.8"/>
</svg>
