<svg width="80" height="40" viewBox="0 0 80 40" xmlns="http://www.w3.org/2000/svg">
  <!-- DeLorean 8-bit Style - Version Alternative Plus Détaillée -->
  
  <!-- Ombre de la voiture -->
  <ellipse cx="40" cy="35" rx="35" ry="3" fill="#000000" opacity="0.3"/>
  
  <!-- Carrosserie principale (acier inoxydable) -->
  <rect x="10" y="15" width="60" height="10" fill="#D3D3D3"/>
  <rect x="12" y="16" width="56" height="8" fill="#E8E8E8"/>
  
  <!-- Capot avant incliné -->
  <polygon points="5,18 5,22 12,20 12,18" fill="#C0C0C0"/>
  <polygon points="6,19 6,21 11,20 11,19" fill="#D3D3D3"/>
  
  <!-- Pare-brise avant -->
  <rect x="20" y="12" width="16" height="5" fill="#87CEEB"/>
  <rect x="21" y="13" width="14" height="3" fill="#B0E0E6"/>
  
  <!-- Toit -->
  <rect x="15" y="10" width="25" height="8" fill="#A9A9A9"/>
  <rect x="16" y="11" width="23" height="6" fill="#C0C0C0"/>
  
  <!-- Lunette arrière -->
  <rect x="40" y="12" width="12" height="5" fill="#87CEEB"/>
  <rect x="41" y="13" width="10" height="3" fill="#B0E0E6"/>
  
  <!-- Coffre arrière -->
  <rect x="52" y="15" width="18" height="10" fill="#C0C0C0"/>
  <rect x="53" y="16" width="16" height="8" fill="#D3D3D3"/>
  
  <!-- Roues avant et arrière -->
  <rect x="15" y="25" width="8" height="6" fill="#2F2F2F"/>
  <rect x="55" y="25" width="8" height="6" fill="#2F2F2F"/>
  
  <!-- Jantes dorées -->
  <rect x="17" y="27" width="4" height="2" fill="#FFD700"/>
  <rect x="57" y="27" width="4" height="2" fill="#FFD700"/>
  <rect x="18" y="26" width="2" height="4" fill="#FFA500"/>
  <rect x="58" y="26" width="2" height="4" fill="#FFA500"/>
  
  <!-- Phares avant -->
  <rect x="2" y="17" width="3" height="3" fill="#FFFACD"/>
  <rect x="2" y="21" width="3" height="3" fill="#FFFACD"/>
  <rect x="3" y="18" width="1" height="1" fill="#FFFFFF"/>
  <rect x="3" y="22" width="1" height="1" fill="#FFFFFF"/>
  
  <!-- Feux arrière -->
  <rect x="70" y="17" width="3" height="3" fill="#DC143C"/>
  <rect x="70" y="21" width="3" height="3" fill="#DC143C"/>
  <rect x="71" y="18" width="1" height="1" fill="#FF6347"/>
  <rect x="71" y="22" width="1" height="1" fill="#FF6347"/>
  
  <!-- Portes papillon (détails) -->
  <rect x="22" y="15" width="1" height="8" fill="#808080"/>
  <rect x="35" y="15" width="1" height="8" fill="#808080"/>
  <rect x="44" y="15" width="1" height="8" fill="#808080"/>
  
  <!-- Grille avant -->
  <rect x="7" y="18" width="3" height="1" fill="#696969"/>
  <rect x="7" y="20" width="3" height="1" fill="#696969"/>
  <rect x="7" y="22" width="3" height="1" fill="#696969"/>
  
  <!-- Flux Capacitor (élément iconique) -->
  <rect x="32" y="17" width="8" height="4" fill="#00CED1"/>
  <rect x="33" y="18" width="6" height="2" fill="#00FFFF"/>
  <rect x="35" y="19" width="2" height="1" fill="#FFFFFF"/>
  
  <!-- Échappement -->
  <rect x="73" y="23" width="5" height="3" fill="#708090"/>
  <rect x="74" y="24" width="3" height="1" fill="#A9A9A9"/>
  
  <!-- Antenne radio -->
  <rect x="30" y="8" width="1" height="4" fill="#C0C0C0"/>
  <rect x="29" y="8" width="3" height="1" fill="#C0C0C0"/>
  
  <!-- Rétroviseurs -->
  <rect x="20" y="14" width="3" height="1" fill="#D3D3D3"/>
  <rect x="37" y="14" width="3" height="1" fill="#D3D3D3"/>
  
  <!-- Pare-chocs avant chromé -->
  <rect x="0" y="19" width="5" height="3" fill="#C0C0C0"/>
  <rect x="1" y="20" width="3" height="1" fill="#E8E8E8"/>
  
  <!-- Pare-chocs arrière chromé -->
  <rect x="70" y="19" width="5" height="3" fill="#C0C0C0"/>
  <rect x="71" y="20" width="3" height="1" fill="#E8E8E8"/>
  
  <!-- Détails de carrosserie -->
  <rect x="25" y="17" width="20" height="1" fill="#F5F5F5"/>
  <rect x="10" y="20" width="60" height="1" fill="#B8B8B8"/>
  <rect x="15" y="22" width="50" height="1" fill="#B8B8B8"/>
  
  <!-- Plaque d'immatriculation -->
  <rect x="32" y="26" width="8" height="2" fill="#FFFFFF"/>
  <rect x="33" y="26" width="6" height="1" fill="#000000"/>
  
  <!-- Lignes de vitesse (effet de mouvement spatial) -->
  <rect x="75" y="12" width="4" height="1" fill="#FFFFFF" opacity="0.8"/>
  <rect x="76" y="14" width="3" height="1" fill="#FFFFFF" opacity="0.6"/>
  <rect x="75" y="16" width="4" height="1" fill="#FFFFFF" opacity="0.8"/>
  <rect x="76" y="18" width="3" height="1" fill="#FFFFFF" opacity="0.6"/>
  <rect x="75" y="20" width="4" height="1" fill="#FFFFFF" opacity="0.8"/>
  <rect x="76" y="22" width="3" height="1" fill="#FFFFFF" opacity="0.6"/>
  <rect x="75" y="24" width="4" height="1" fill="#FFFFFF" opacity="0.8"/>
  
  <!-- Reflets sur la carrosserie -->
  <rect x="15" y="16" width="50" height="1" fill="#FFFFFF" opacity="0.4"/>
  <rect x="20" y="13" width="30" height="1" fill="#FFFFFF" opacity="0.3"/>
</svg>
