<svg width="32" height="32" viewBox="0 0 32 32" xmlns="http://www.w3.org/2000/svg">
  <!-- Vaisseau Ennemi Type 2 - Croiseur Violet -->
  
  <!-- Corps principal (plus large) -->
  <rect x="6" y="10" width="20" height="12" fill="#6600CC"/>
  <rect x="7" y="11" width="18" height="10" fill="#9933FF"/>
  
  <!-- Nez émoussé -->
  <rect x="26" y="13" width="4" height="6" fill="#4400AA"/>
  <rect x="27" y="14" width="2" height="4" fill="#6600CC"/>
  
  <!-- Ailes larges -->
  <rect x="4" y="8" width="6" height="6" fill="#5500BB"/>
  <rect x="4" y="18" width="6" height="6" fill="#5500BB"/>
  <rect x="5" y="9" width="4" height="4" fill="#7722DD"/>
  <rect x="5" y="19" width="4" height="4" fill="#7722DD"/>
  
  <!-- Double réacteur -->
  <rect x="2" y="12" width="4" height="3" fill="#FF3300"/>
  <rect x="2" y="17" width="4" height="3" fill="#FF3300"/>
  <rect x="3" y="13" width="2" height="1" fill="#FFAA00"/>
  <rect x="3" y="18" width="2" height="1" fill="#FFAA00"/>
  
  <!-- Cockpit central -->
  <rect x="14" y="13" width="6" height="6" fill="#00CCFF"/>
  <rect x="15" y="14" width="4" height="4" fill="#66DDFF"/>
  
  <!-- Détails technologiques -->
  <rect x="8" y="15" width="16" height="2" fill="#AA66FF"/>
  <rect x="10" y="12" width="2" height="8" fill="#4400AA"/>
  <rect x="20" y="12" width="2" height="8" fill="#4400AA"/>
  
  <!-- Canons multiples -->
  <rect x="30" y="11" width="2" height="2" fill="#888888"/>
  <rect x="30" y="14" width="2" height="2" fill="#888888"/>
  <rect x="30" y="16" width="2" height="2" fill="#888888"/>
  <rect x="30" y="19" width="2" height="2" fill="#888888"/>
  
  <!-- Effet de propulsion double -->
  <rect x="0" y="13" width="2" height="1" fill="#FFFF00" opacity="0.8"/>
  <rect x="0" y="18" width="2" height="1" fill="#FFFF00" opacity="0.8"/>
</svg>
